<svg width="24px" height="24px" viewBox="0 0 24 24" fill="none" xmlns="http://www.w3.org/2000/svg">
<path fill-rule="evenodd" clip-rule="evenodd" d="M15.6208 21.7747C15.3204 22.0751 14.8334 22.0751 14.533 21.7747L8.37915 15.6209C8.07874 15.3204 8.07874 14.8334 8.37915 14.533C8.67955 14.2326 9.1666 14.2326 9.467 14.533L14.3077 19.3737L14.3077 8.92308C14.3077 5.94924 11.8969 3.53846 8.92308 3.53846L2.76923 3.53846C2.3444 3.53846 2 3.19406 2 2.76923C2 2.3444 2.3444 2 2.76923 2L8.92308 2C12.7466 2 15.8462 5.09957 15.8462 8.92308L15.8462 19.3737L20.6868 14.533C20.9872 14.2326 21.4743 14.2326 21.7747 14.533C22.0751 14.8334 22.0751 15.3204 21.7747 15.6209L15.6208 21.7747Z" fill="#030D45"/>
</svg>
